<?xml version="1.0" encoding="UTF-8" standalone="no"?>
<!DOCTYPE svg PUBLIC "-//W3C//DTD SVG 1.1//EN"
 "http://www.w3.org/Graphics/SVG/1.1/DTD/svg11.dtd">
<!-- Generated by graphviz version 12.0.0 (20240704.0754)
 -->
<!-- Title: Tree Pages: 1 -->
<svg width="218pt" height="195pt"
 viewBox="0.00 0.00 218.25 195.00" xmlns="http://www.w3.org/2000/svg" xmlns:xlink="http://www.w3.org/1999/xlink">
<g id="graph0" class="graph" transform="scale(1 1) rotate(0) translate(4 191)">
<title>Tree</title>
<polygon fill="white" stroke="none" points="-4,4 -4,-191 214.25,-191 214.25,4 -4,4"/>
<!-- 0 -->
<g id="node1" class="node">
<title>0</title>
<path fill="#ffffff" stroke="black" d="M140.5,-187C140.5,-187 69,-187 69,-187 63,-187 57,-181 57,-175 57,-175 57,-116 57,-116 57,-110 63,-104 69,-104 69,-104 140.5,-104 140.5,-104 146.5,-104 152.5,-110 152.5,-116 152.5,-116 152.5,-175 152.5,-175 152.5,-181 146.5,-187 140.5,-187"/>
<text text-anchor="start" x="73.25" y="-169.7" font-family="Helvetica,sans-Serif" font-size="14.00">x1 ≤ 2.005</text>
<text text-anchor="start" x="65" y="-154.7" font-family="Helvetica,sans-Serif" font-size="14.00">entropy = 1.0</text>
<text text-anchor="start" x="67.62" y="-139.7" font-family="Helvetica,sans-Serif" font-size="14.00">samples = 8</text>
<text text-anchor="start" x="65.75" y="-124.7" font-family="Helvetica,sans-Serif" font-size="14.00">value = [4, 4]</text>
<text text-anchor="start" x="68.75" y="-109.7" font-family="Helvetica,sans-Serif" font-size="14.00">class = blue</text>
</g>
<!-- 1 -->
<g id="node2" class="node">
<title>1</title>
<path fill="#e58139" stroke="black" d="M83.5,-68C83.5,-68 12,-68 12,-68 6,-68 0,-62 0,-56 0,-56 0,-12 0,-12 0,-6 6,0 12,0 12,0 83.5,0 83.5,0 89.5,0 95.5,-6 95.5,-12 95.5,-12 95.5,-56 95.5,-56 95.5,-62 89.5,-68 83.5,-68"/>
<text text-anchor="start" x="8" y="-50.7" font-family="Helvetica,sans-Serif" font-size="14.00">entropy = 0.0</text>
<text text-anchor="start" x="10.62" y="-35.7" font-family="Helvetica,sans-Serif" font-size="14.00">samples = 4</text>
<text text-anchor="start" x="8.75" y="-20.7" font-family="Helvetica,sans-Serif" font-size="14.00">value = [4, 0]</text>
<text text-anchor="start" x="11.75" y="-5.7" font-family="Helvetica,sans-Serif" font-size="14.00">class = blue</text>
</g>
<!-- 0&#45;&gt;1 -->
<g id="edge1" class="edge">
<title>0&#45;&gt;1</title>
<path fill="none" stroke="black" d="M83.53,-103.73C79.2,-95.43 74.65,-86.67 70.28,-78.28"/>
<polygon fill="black" stroke="black" points="73.5,-76.9 65.78,-69.64 67.3,-80.13 73.5,-76.9"/>
<text text-anchor="middle" x="57.57" y="-86.34" font-family="Helvetica,sans-Serif" font-size="14.00">True</text>
</g>
<!-- 2 -->
<g id="node3" class="node">
<title>2</title>
<path fill="#399de5" stroke="black" d="M198.25,-68C198.25,-68 125.25,-68 125.25,-68 119.25,-68 113.25,-62 113.25,-56 113.25,-56 113.25,-12 113.25,-12 113.25,-6 119.25,0 125.25,0 125.25,0 198.25,0 198.25,0 204.25,0 210.25,-6 210.25,-12 210.25,-12 210.25,-56 210.25,-56 210.25,-62 204.25,-68 198.25,-68"/>
<text text-anchor="start" x="122" y="-50.7" font-family="Helvetica,sans-Serif" font-size="14.00">entropy = 0.0</text>
<text text-anchor="start" x="124.62" y="-35.7" font-family="Helvetica,sans-Serif" font-size="14.00">samples = 4</text>
<text text-anchor="start" x="122.75" y="-20.7" font-family="Helvetica,sans-Serif" font-size="14.00">value = [0, 4]</text>
<text text-anchor="start" x="121.25" y="-5.7" font-family="Helvetica,sans-Serif" font-size="14.00">class = green</text>
</g>
<!-- 0&#45;&gt;2 -->
<g id="edge2" class="edge">
<title>0&#45;&gt;2</title>
<path fill="none" stroke="black" d="M125.97,-103.73C130.3,-95.43 134.85,-86.67 139.22,-78.28"/>
<polygon fill="black" stroke="black" points="142.2,-80.13 143.72,-69.64 136,-76.9 142.2,-80.13"/>
<text text-anchor="middle" x="151.93" y="-86.34" font-family="Helvetica,sans-Serif" font-size="14.00">False</text>
</g>
</g>
</svg>