<?xml version="1.0" encoding="UTF-8" standalone="no"?>
<!DOCTYPE svg PUBLIC "-//W3C//DTD SVG 1.1//EN"
 "http://www.w3.org/Graphics/SVG/1.1/DTD/svg11.dtd">
<!-- Generated by graphviz version 12.0.0 (20240704.0754)
 -->
<!-- Title: Tree Pages: 1 -->
<svg width="218pt" height="195pt"
 viewBox="0.00 0.00 217.50 195.00" xmlns="http://www.w3.org/2000/svg" xmlns:xlink="http://www.w3.org/1999/xlink">
<g id="graph0" class="graph" transform="scale(1 1) rotate(0) translate(4 191)">
<title>Tree</title>
<polygon fill="white" stroke="none" points="-4,4 -4,-191 213.5,-191 213.5,4 -4,4"/>
<!-- 0 -->
<g id="node1" class="node">
<title>0</title>
<path fill="#ffffff" stroke="black" d="M139,-187C139,-187 69,-187 69,-187 63,-187 57,-181 57,-175 57,-175 57,-116 57,-116 57,-110 63,-104 69,-104 69,-104 139,-104 139,-104 145,-104 151,-110 151,-116 151,-116 151,-175 151,-175 151,-181 145,-187 139,-187"/>
<text text-anchor="start" x="72.5" y="-169.7" font-family="Helvetica,sans-Serif" font-size="14.00">x1 ≤ 2.005</text>
<text text-anchor="start" x="76.25" y="-154.7" font-family="Helvetica,sans-Serif" font-size="14.00">gini = 0.5</text>
<text text-anchor="start" x="66.88" y="-139.7" font-family="Helvetica,sans-Serif" font-size="14.00">samples = 8</text>
<text text-anchor="start" x="65" y="-124.7" font-family="Helvetica,sans-Serif" font-size="14.00">value = [4, 4]</text>
<text text-anchor="start" x="68" y="-109.7" font-family="Helvetica,sans-Serif" font-size="14.00">class = blue</text>
</g>
<!-- 1 -->
<g id="node2" class="node">
<title>1</title>
<path fill="#e58139" stroke="black" d="M82,-68C82,-68 12,-68 12,-68 6,-68 0,-62 0,-56 0,-56 0,-12 0,-12 0,-6 6,0 12,0 12,0 82,0 82,0 88,0 94,-6 94,-12 94,-12 94,-56 94,-56 94,-62 88,-68 82,-68"/>
<text text-anchor="start" x="19.25" y="-50.7" font-family="Helvetica,sans-Serif" font-size="14.00">gini = 0.0</text>
<text text-anchor="start" x="9.88" y="-35.7" font-family="Helvetica,sans-Serif" font-size="14.00">samples = 4</text>
<text text-anchor="start" x="8" y="-20.7" font-family="Helvetica,sans-Serif" font-size="14.00">value = [4, 0]</text>
<text text-anchor="start" x="11" y="-5.7" font-family="Helvetica,sans-Serif" font-size="14.00">class = blue</text>
</g>
<!-- 0&#45;&gt;1 -->
<g id="edge1" class="edge">
<title>0&#45;&gt;1</title>
<path fill="none" stroke="black" d="M82.78,-103.73C78.45,-95.43 73.9,-86.67 69.53,-78.28"/>
<polygon fill="black" stroke="black" points="72.75,-76.9 65.03,-69.64 66.55,-80.13 72.75,-76.9"/>
<text text-anchor="middle" x="56.82" y="-86.34" font-family="Helvetica,sans-Serif" font-size="14.00">True</text>
</g>
<!-- 2 -->
<g id="node3" class="node">
<title>2</title>
<path fill="#399de5" stroke="black" d="M197.5,-68C197.5,-68 124.5,-68 124.5,-68 118.5,-68 112.5,-62 112.5,-56 112.5,-56 112.5,-12 112.5,-12 112.5,-6 118.5,0 124.5,0 124.5,0 197.5,0 197.5,0 203.5,0 209.5,-6 209.5,-12 209.5,-12 209.5,-56 209.5,-56 209.5,-62 203.5,-68 197.5,-68"/>
<text text-anchor="start" x="133.25" y="-50.7" font-family="Helvetica,sans-Serif" font-size="14.00">gini = 0.0</text>
<text text-anchor="start" x="123.88" y="-35.7" font-family="Helvetica,sans-Serif" font-size="14.00">samples = 4</text>
<text text-anchor="start" x="122" y="-20.7" font-family="Helvetica,sans-Serif" font-size="14.00">value = [0, 4]</text>
<text text-anchor="start" x="120.5" y="-5.7" font-family="Helvetica,sans-Serif" font-size="14.00">class = green</text>
</g>
<!-- 0&#45;&gt;2 -->
<g id="edge2" class="edge">
<title>0&#45;&gt;2</title>
<path fill="none" stroke="black" d="M125.22,-103.73C129.55,-95.43 134.1,-86.67 138.47,-78.28"/>
<polygon fill="black" stroke="black" points="141.45,-80.13 142.97,-69.64 135.25,-76.9 141.45,-80.13"/>
<text text-anchor="middle" x="151.18" y="-86.34" font-family="Helvetica,sans-Serif" font-size="14.00">False</text>
</g>
</g>
</svg>